<svg xmlns="http://www.w3.org/2000/svg" viewBox="0 0 512 512">
  <path
    d="M86,392C38.535,392 0,353.465 0,306C0,258.535 38.535,220 86,220C87.604,220 89.198,220.044 90.788,220.132C106.545,162.448 159.355,120 222,120C272.403,120 316.439,147.478 339.934,188.265C350.563,182.668 362.665,179.5 375.5,179.5C417.721,179.5 452,213.779 452,256C452,261.493 451.42,266.852 450.316,272.024C450.876,272.008 451.437,272 452,272C485.115,272 512,298.885 512,332C512,365.115 485.115,392 452,392L86,392Z"
    fill="#fff"
  />
</svg>
