<svg xmlns="http://www.w3.org/2000/svg" viewBox="0 0 512 512">
  <path
    d="M71.535,398.499C32.011,398.248 0,366.083 0,326.5C0,293.518 22.225,265.685 52.505,257.175C52.502,256.786 52.5,256.393 52.5,256C52.5,177.352 116.352,113.5 195,113.5C255.63,113.5 307.466,151.446 328.035,204.865C330.822,204.623 333.647,204.5 336.5,204.5C368.439,204.5 396.794,219.97 414.477,243.825C420.568,242.306 426.941,241.5 433.5,241.5C476.825,241.5 512,276.675 512,320C512,363.325 476.825,398.5 433.5,398.5L72,398.5L71.535,398.499Z"
    fill="#fff"
  />
</svg>
